<mxfile host="Electron" modified="2024-03-27T16:56:30.649Z" agent="Mozilla/5.0 (Windows NT 10.0; Win64; x64) AppleWebKit/537.36 (KHTML, like Gecko) draw.io/24.0.4 Chrome/120.0.6099.109 Electron/28.1.0 Safari/537.36" etag="Rrb0Ax1XGo-35Qbmmo9N" version="24.0.4" type="device">
  <diagram name="Pagina-1" id="ih3MYvaLbMjuydLUmffw">
    <mxGraphModel dx="1012" dy="614" grid="1" gridSize="10" guides="1" tooltips="1" connect="1" arrows="1" fold="1" page="1" pageScale="1" pageWidth="827" pageHeight="1169" math="0" shadow="0">
      <root>
        <mxCell id="0" />
        <mxCell id="1" parent="0" />
        <mxCell id="zrCdLSHMlBMFCDXcZO0a-9" value="" style="edgeStyle=orthogonalEdgeStyle;rounded=0;orthogonalLoop=1;jettySize=auto;html=1;endArrow=doubleBlock;endFill=1;" parent="1" source="zrCdLSHMlBMFCDXcZO0a-1" target="zrCdLSHMlBMFCDXcZO0a-8" edge="1">
          <mxGeometry relative="1" as="geometry">
            <Array as="points">
              <mxPoint x="70" y="425" />
              <mxPoint x="70" y="425" />
            </Array>
          </mxGeometry>
        </mxCell>
        <mxCell id="zrCdLSHMlBMFCDXcZO0a-39" style="edgeStyle=orthogonalEdgeStyle;rounded=0;orthogonalLoop=1;jettySize=auto;html=1;entryX=0;entryY=0.5;entryDx=0;entryDy=0;" parent="1" source="zrCdLSHMlBMFCDXcZO0a-1" target="zrCdLSHMlBMFCDXcZO0a-30" edge="1">
          <mxGeometry relative="1" as="geometry" />
        </mxCell>
        <mxCell id="zrCdLSHMlBMFCDXcZO0a-40" style="edgeStyle=orthogonalEdgeStyle;rounded=0;orthogonalLoop=1;jettySize=auto;html=1;entryX=0;entryY=0.5;entryDx=0;entryDy=0;" parent="1" source="zrCdLSHMlBMFCDXcZO0a-1" target="zrCdLSHMlBMFCDXcZO0a-34" edge="1">
          <mxGeometry relative="1" as="geometry" />
        </mxCell>
        <mxCell id="zrCdLSHMlBMFCDXcZO0a-111" style="edgeStyle=orthogonalEdgeStyle;rounded=0;orthogonalLoop=1;jettySize=auto;html=1;entryX=0;entryY=0.5;entryDx=0;entryDy=0;" parent="1" source="zrCdLSHMlBMFCDXcZO0a-1" target="zrCdLSHMlBMFCDXcZO0a-109" edge="1">
          <mxGeometry relative="1" as="geometry" />
        </mxCell>
        <mxCell id="zrCdLSHMlBMFCDXcZO0a-1" value="Utente" style="rounded=0;whiteSpace=wrap;html=1;fillColor=#dae8fc;strokeColor=#000000;" parent="1" vertex="1">
          <mxGeometry x="10" y="455" width="120" height="60" as="geometry" />
        </mxCell>
        <mxCell id="zrCdLSHMlBMFCDXcZO0a-19" style="edgeStyle=orthogonalEdgeStyle;rounded=0;orthogonalLoop=1;jettySize=auto;html=1;entryX=0.5;entryY=1;entryDx=0;entryDy=0;endArrow=block;endFill=1;" parent="1" source="zrCdLSHMlBMFCDXcZO0a-2" target="zrCdLSHMlBMFCDXcZO0a-12" edge="1">
          <mxGeometry relative="1" as="geometry" />
        </mxCell>
        <mxCell id="zrCdLSHMlBMFCDXcZO0a-46" style="edgeStyle=orthogonalEdgeStyle;rounded=0;orthogonalLoop=1;jettySize=auto;html=1;entryX=0;entryY=0.5;entryDx=0;entryDy=0;" parent="1" source="zrCdLSHMlBMFCDXcZO0a-2" target="zrCdLSHMlBMFCDXcZO0a-44" edge="1">
          <mxGeometry relative="1" as="geometry" />
        </mxCell>
        <mxCell id="zrCdLSHMlBMFCDXcZO0a-53" style="edgeStyle=orthogonalEdgeStyle;rounded=0;orthogonalLoop=1;jettySize=auto;html=1;entryX=0;entryY=0.5;entryDx=0;entryDy=0;" parent="1" source="zrCdLSHMlBMFCDXcZO0a-2" target="zrCdLSHMlBMFCDXcZO0a-47" edge="1">
          <mxGeometry relative="1" as="geometry" />
        </mxCell>
        <mxCell id="zrCdLSHMlBMFCDXcZO0a-54" style="edgeStyle=orthogonalEdgeStyle;rounded=0;orthogonalLoop=1;jettySize=auto;html=1;entryX=0;entryY=0.5;entryDx=0;entryDy=0;" parent="1" source="zrCdLSHMlBMFCDXcZO0a-2" target="zrCdLSHMlBMFCDXcZO0a-49" edge="1">
          <mxGeometry relative="1" as="geometry" />
        </mxCell>
        <mxCell id="zrCdLSHMlBMFCDXcZO0a-55" style="edgeStyle=orthogonalEdgeStyle;rounded=0;orthogonalLoop=1;jettySize=auto;html=1;entryX=0;entryY=0.5;entryDx=0;entryDy=0;" parent="1" source="zrCdLSHMlBMFCDXcZO0a-2" target="zrCdLSHMlBMFCDXcZO0a-51" edge="1">
          <mxGeometry relative="1" as="geometry" />
        </mxCell>
        <mxCell id="zrCdLSHMlBMFCDXcZO0a-64" style="edgeStyle=orthogonalEdgeStyle;rounded=0;orthogonalLoop=1;jettySize=auto;html=1;entryX=0;entryY=0.5;entryDx=0;entryDy=0;" parent="1" source="zrCdLSHMlBMFCDXcZO0a-2" target="zrCdLSHMlBMFCDXcZO0a-56" edge="1">
          <mxGeometry relative="1" as="geometry" />
        </mxCell>
        <mxCell id="zrCdLSHMlBMFCDXcZO0a-65" style="edgeStyle=orthogonalEdgeStyle;rounded=0;orthogonalLoop=1;jettySize=auto;html=1;entryX=0;entryY=0.5;entryDx=0;entryDy=0;" parent="1" source="zrCdLSHMlBMFCDXcZO0a-2" target="zrCdLSHMlBMFCDXcZO0a-58" edge="1">
          <mxGeometry relative="1" as="geometry" />
        </mxCell>
        <mxCell id="zrCdLSHMlBMFCDXcZO0a-67" style="edgeStyle=orthogonalEdgeStyle;rounded=0;orthogonalLoop=1;jettySize=auto;html=1;entryX=0;entryY=0.5;entryDx=0;entryDy=0;" parent="1" source="zrCdLSHMlBMFCDXcZO0a-2" target="zrCdLSHMlBMFCDXcZO0a-61" edge="1">
          <mxGeometry relative="1" as="geometry" />
        </mxCell>
        <mxCell id="zrCdLSHMlBMFCDXcZO0a-102" style="edgeStyle=orthogonalEdgeStyle;rounded=0;orthogonalLoop=1;jettySize=auto;html=1;" parent="1" source="zrCdLSHMlBMFCDXcZO0a-2" edge="1">
          <mxGeometry relative="1" as="geometry">
            <mxPoint x="530" y="570" as="targetPoint" />
            <Array as="points">
              <mxPoint x="490" y="570" />
              <mxPoint x="530" y="570" />
            </Array>
          </mxGeometry>
        </mxCell>
        <mxCell id="zrCdLSHMlBMFCDXcZO0a-2" value="Variazione" style="rounded=0;whiteSpace=wrap;html=1;fillColor=#e1d5e7;strokeColor=#000000;" parent="1" vertex="1">
          <mxGeometry x="430" y="455" width="120" height="60" as="geometry" />
        </mxCell>
        <mxCell id="zrCdLSHMlBMFCDXcZO0a-14" style="edgeStyle=orthogonalEdgeStyle;rounded=0;orthogonalLoop=1;jettySize=auto;html=1;entryX=0.5;entryY=0;entryDx=0;entryDy=0;endArrow=doubleBlock;endFill=1;" parent="1" source="zrCdLSHMlBMFCDXcZO0a-3" target="zrCdLSHMlBMFCDXcZO0a-12" edge="1">
          <mxGeometry relative="1" as="geometry" />
        </mxCell>
        <mxCell id="zrCdLSHMlBMFCDXcZO0a-17" style="edgeStyle=orthogonalEdgeStyle;rounded=0;orthogonalLoop=1;jettySize=auto;html=1;entryX=1;entryY=0.5;entryDx=0;entryDy=0;endArrow=doubleBlock;endFill=1;" parent="1" source="zrCdLSHMlBMFCDXcZO0a-3" target="zrCdLSHMlBMFCDXcZO0a-15" edge="1">
          <mxGeometry relative="1" as="geometry" />
        </mxCell>
        <mxCell id="zrCdLSHMlBMFCDXcZO0a-22" style="edgeStyle=orthogonalEdgeStyle;rounded=0;orthogonalLoop=1;jettySize=auto;html=1;entryX=0;entryY=0.5;entryDx=0;entryDy=0;" parent="1" source="zrCdLSHMlBMFCDXcZO0a-3" target="zrCdLSHMlBMFCDXcZO0a-20" edge="1">
          <mxGeometry relative="1" as="geometry" />
        </mxCell>
        <mxCell id="zrCdLSHMlBMFCDXcZO0a-26" style="edgeStyle=orthogonalEdgeStyle;rounded=0;orthogonalLoop=1;jettySize=auto;html=1;entryX=0;entryY=0.5;entryDx=0;entryDy=0;" parent="1" source="zrCdLSHMlBMFCDXcZO0a-3" target="zrCdLSHMlBMFCDXcZO0a-25" edge="1">
          <mxGeometry relative="1" as="geometry" />
        </mxCell>
        <mxCell id="zrCdLSHMlBMFCDXcZO0a-27" style="edgeStyle=orthogonalEdgeStyle;rounded=0;orthogonalLoop=1;jettySize=auto;html=1;entryX=0;entryY=0.5;entryDx=0;entryDy=0;" parent="1" source="zrCdLSHMlBMFCDXcZO0a-3" target="zrCdLSHMlBMFCDXcZO0a-96" edge="1">
          <mxGeometry relative="1" as="geometry">
            <mxPoint x="490" y="100" as="targetPoint" />
          </mxGeometry>
        </mxCell>
        <mxCell id="zrCdLSHMlBMFCDXcZO0a-100" style="edgeStyle=orthogonalEdgeStyle;rounded=0;orthogonalLoop=1;jettySize=auto;html=1;entryX=0;entryY=0.5;entryDx=0;entryDy=0;" parent="1" source="zrCdLSHMlBMFCDXcZO0a-3" target="zrCdLSHMlBMFCDXcZO0a-98" edge="1">
          <mxGeometry relative="1" as="geometry" />
        </mxCell>
        <mxCell id="zrCdLSHMlBMFCDXcZO0a-3" value="Prodotto" style="rounded=0;whiteSpace=wrap;html=1;fillColor=#f8cecc;strokeColor=#000000;" parent="1" vertex="1">
          <mxGeometry x="430" y="170" width="120" height="60" as="geometry" />
        </mxCell>
        <mxCell id="zrCdLSHMlBMFCDXcZO0a-21" value="" style="edgeStyle=orthogonalEdgeStyle;rounded=0;orthogonalLoop=1;jettySize=auto;html=1;endArrow=doubleBlock;endFill=1;" parent="1" source="zrCdLSHMlBMFCDXcZO0a-4" target="zrCdLSHMlBMFCDXcZO0a-20" edge="1">
          <mxGeometry relative="1" as="geometry" />
        </mxCell>
        <mxCell id="zrCdLSHMlBMFCDXcZO0a-43" style="edgeStyle=orthogonalEdgeStyle;rounded=0;orthogonalLoop=1;jettySize=auto;html=1;entryX=0;entryY=0.5;entryDx=0;entryDy=0;" parent="1" source="zrCdLSHMlBMFCDXcZO0a-4" target="zrCdLSHMlBMFCDXcZO0a-41" edge="1">
          <mxGeometry relative="1" as="geometry" />
        </mxCell>
        <mxCell id="zrCdLSHMlBMFCDXcZO0a-4" value="Categoria" style="rounded=0;whiteSpace=wrap;html=1;fillColor=#d5e8d4;strokeColor=#000000;" parent="1" vertex="1">
          <mxGeometry x="790" y="170" width="120" height="60" as="geometry" />
        </mxCell>
        <mxCell id="zrCdLSHMlBMFCDXcZO0a-10" style="edgeStyle=orthogonalEdgeStyle;rounded=0;orthogonalLoop=1;jettySize=auto;html=1;entryX=0.5;entryY=0;entryDx=0;entryDy=0;" parent="1" source="zrCdLSHMlBMFCDXcZO0a-5" target="zrCdLSHMlBMFCDXcZO0a-8" edge="1">
          <mxGeometry relative="1" as="geometry" />
        </mxCell>
        <mxCell id="zrCdLSHMlBMFCDXcZO0a-16" value="" style="edgeStyle=orthogonalEdgeStyle;rounded=0;orthogonalLoop=1;jettySize=auto;html=1;endArrow=doubleBlock;endFill=1;entryX=0;entryY=0.5;entryDx=0;entryDy=0;" parent="1" source="zrCdLSHMlBMFCDXcZO0a-5" target="zrCdLSHMlBMFCDXcZO0a-15" edge="1">
          <mxGeometry relative="1" as="geometry">
            <mxPoint x="210" y="195" as="targetPoint" />
            <Array as="points">
              <mxPoint x="160" y="200" />
              <mxPoint x="160" y="200" />
            </Array>
          </mxGeometry>
        </mxCell>
        <mxCell id="zrCdLSHMlBMFCDXcZO0a-76" style="edgeStyle=orthogonalEdgeStyle;rounded=0;orthogonalLoop=1;jettySize=auto;html=1;entryX=0;entryY=0.5;entryDx=0;entryDy=0;" parent="1" source="zrCdLSHMlBMFCDXcZO0a-5" target="zrCdLSHMlBMFCDXcZO0a-70" edge="1">
          <mxGeometry relative="1" as="geometry" />
        </mxCell>
        <mxCell id="zrCdLSHMlBMFCDXcZO0a-5" value="Ordine" style="rounded=0;whiteSpace=wrap;html=1;fillColor=#fff2cc;strokeColor=#000000;" parent="1" vertex="1">
          <mxGeometry x="10" y="165" width="120" height="60" as="geometry" />
        </mxCell>
        <mxCell id="zrCdLSHMlBMFCDXcZO0a-8" value="Effettua" style="rhombus;whiteSpace=wrap;html=1;rounded=0;fillColor=#1ba1e2;fontColor=#ffffff;strokeColor=#000000;" parent="1" vertex="1">
          <mxGeometry x="30" y="275" width="80" height="80" as="geometry" />
        </mxCell>
        <mxCell id="zrCdLSHMlBMFCDXcZO0a-11" value="" style="endArrow=none;html=1;rounded=0;" parent="1" edge="1">
          <mxGeometry width="50" height="50" relative="1" as="geometry">
            <mxPoint x="40" y="425" as="sourcePoint" />
            <mxPoint x="100" y="425" as="targetPoint" />
          </mxGeometry>
        </mxCell>
        <mxCell id="zrCdLSHMlBMFCDXcZO0a-12" value="Subisce" style="rhombus;whiteSpace=wrap;html=1;rounded=0;fillColor=#1ba1e2;fontColor=#ffffff;strokeColor=#000000;" parent="1" vertex="1">
          <mxGeometry x="450" y="310" width="80" height="80" as="geometry" />
        </mxCell>
        <mxCell id="zrCdLSHMlBMFCDXcZO0a-101" style="edgeStyle=orthogonalEdgeStyle;rounded=0;orthogonalLoop=1;jettySize=auto;html=1;entryX=0;entryY=0.5;entryDx=0;entryDy=0;" parent="1" source="zrCdLSHMlBMFCDXcZO0a-15" target="zrCdLSHMlBMFCDXcZO0a-94" edge="1">
          <mxGeometry relative="1" as="geometry" />
        </mxCell>
        <mxCell id="zrCdLSHMlBMFCDXcZO0a-15" value="Prodotto&lt;div&gt;Ordine&lt;/div&gt;" style="rhombus;whiteSpace=wrap;html=1;rounded=0;" parent="1" vertex="1">
          <mxGeometry x="240" y="160" width="80" height="80" as="geometry" />
        </mxCell>
        <mxCell id="zrCdLSHMlBMFCDXcZO0a-18" value="" style="endArrow=none;html=1;rounded=0;" parent="1" edge="1">
          <mxGeometry width="50" height="50" relative="1" as="geometry">
            <mxPoint x="404" y="230" as="sourcePoint" />
            <mxPoint x="404" y="167.5" as="targetPoint" />
          </mxGeometry>
        </mxCell>
        <mxCell id="zrCdLSHMlBMFCDXcZO0a-20" value="Appartiene" style="rhombus;whiteSpace=wrap;html=1;rounded=0;fillColor=#1ba1e2;fontColor=#ffffff;strokeColor=#000000;" parent="1" vertex="1">
          <mxGeometry x="650" y="160" width="80" height="80" as="geometry" />
        </mxCell>
        <mxCell id="zrCdLSHMlBMFCDXcZO0a-23" value="" style="endArrow=none;html=1;rounded=0;" parent="1" edge="1">
          <mxGeometry width="50" height="50" relative="1" as="geometry">
            <mxPoint x="462.5" y="260" as="sourcePoint" />
            <mxPoint x="517.5" y="260" as="targetPoint" />
          </mxGeometry>
        </mxCell>
        <mxCell id="zrCdLSHMlBMFCDXcZO0a-24" value="" style="endArrow=none;html=1;rounded=0;" parent="1" edge="1">
          <mxGeometry width="50" height="50" relative="1" as="geometry">
            <mxPoint x="600" y="230" as="sourcePoint" />
            <mxPoint x="600" y="170" as="targetPoint" />
          </mxGeometry>
        </mxCell>
        <mxCell id="zrCdLSHMlBMFCDXcZO0a-25" value="" style="ellipse;whiteSpace=wrap;html=1;aspect=fixed;" parent="1" vertex="1">
          <mxGeometry x="510" y="120" width="20" height="20" as="geometry" />
        </mxCell>
        <mxCell id="zrCdLSHMlBMFCDXcZO0a-29" value="Marca" style="text;html=1;align=center;verticalAlign=middle;resizable=0;points=[];autosize=1;strokeColor=none;fillColor=none;" parent="1" vertex="1">
          <mxGeometry x="520" y="115" width="60" height="30" as="geometry" />
        </mxCell>
        <mxCell id="zrCdLSHMlBMFCDXcZO0a-30" value="" style="ellipse;whiteSpace=wrap;html=1;aspect=fixed;" parent="1" vertex="1">
          <mxGeometry x="90" y="545" width="20" height="20" as="geometry" />
        </mxCell>
        <mxCell id="zrCdLSHMlBMFCDXcZO0a-33" value="Nominativo" style="text;html=1;align=center;verticalAlign=middle;whiteSpace=wrap;rounded=0;" parent="1" vertex="1">
          <mxGeometry x="113" y="540" width="60" height="30" as="geometry" />
        </mxCell>
        <mxCell id="zrCdLSHMlBMFCDXcZO0a-34" value="" style="ellipse;whiteSpace=wrap;html=1;aspect=fixed;fillColor=#FFFFFF;" parent="1" vertex="1">
          <mxGeometry x="130" y="575" width="20" height="20" as="geometry" />
        </mxCell>
        <mxCell id="zrCdLSHMlBMFCDXcZO0a-36" value="Email" style="text;html=1;align=center;verticalAlign=middle;resizable=0;points=[];autosize=1;strokeColor=none;fillColor=none;" parent="1" vertex="1">
          <mxGeometry x="146.5" y="570" width="50" height="30" as="geometry" />
        </mxCell>
        <mxCell id="zrCdLSHMlBMFCDXcZO0a-41" value="" style="ellipse;whiteSpace=wrap;html=1;aspect=fixed;" parent="1" vertex="1">
          <mxGeometry x="880" y="260" width="20" height="20" as="geometry" />
        </mxCell>
        <mxCell id="zrCdLSHMlBMFCDXcZO0a-42" value="Nome" style="text;html=1;align=center;verticalAlign=middle;resizable=0;points=[];autosize=1;strokeColor=none;fillColor=none;" parent="1" vertex="1">
          <mxGeometry x="890" y="255" width="60" height="30" as="geometry" />
        </mxCell>
        <mxCell id="zrCdLSHMlBMFCDXcZO0a-44" value="" style="ellipse;whiteSpace=wrap;html=1;aspect=fixed;" parent="1" vertex="1">
          <mxGeometry x="530" y="590" width="20" height="20" as="geometry" />
        </mxCell>
        <mxCell id="zrCdLSHMlBMFCDXcZO0a-45" value="Colore" style="text;html=1;align=center;verticalAlign=middle;resizable=0;points=[];autosize=1;strokeColor=none;fillColor=none;" parent="1" vertex="1">
          <mxGeometry x="540" y="585" width="60" height="30" as="geometry" />
        </mxCell>
        <mxCell id="zrCdLSHMlBMFCDXcZO0a-47" value="" style="ellipse;whiteSpace=wrap;html=1;aspect=fixed;" parent="1" vertex="1">
          <mxGeometry x="530" y="615" width="20" height="20" as="geometry" />
        </mxCell>
        <mxCell id="zrCdLSHMlBMFCDXcZO0a-48" value="Taglia" style="text;html=1;align=center;verticalAlign=middle;resizable=0;points=[];autosize=1;strokeColor=none;fillColor=none;" parent="1" vertex="1">
          <mxGeometry x="545" y="610" width="50" height="30" as="geometry" />
        </mxCell>
        <mxCell id="zrCdLSHMlBMFCDXcZO0a-49" value="" style="ellipse;whiteSpace=wrap;html=1;aspect=fixed;" parent="1" vertex="1">
          <mxGeometry x="530" y="640" width="20" height="20" as="geometry" />
        </mxCell>
        <mxCell id="zrCdLSHMlBMFCDXcZO0a-50" value="QuantitaStock" style="text;html=1;align=center;verticalAlign=middle;resizable=0;points=[];autosize=1;strokeColor=none;fillColor=none;" parent="1" vertex="1">
          <mxGeometry x="540" y="635" width="100" height="30" as="geometry" />
        </mxCell>
        <mxCell id="zrCdLSHMlBMFCDXcZO0a-51" value="" style="ellipse;whiteSpace=wrap;html=1;aspect=fixed;" parent="1" vertex="1">
          <mxGeometry x="530" y="665" width="20" height="20" as="geometry" />
        </mxCell>
        <mxCell id="zrCdLSHMlBMFCDXcZO0a-52" value="Prezzo" style="text;html=1;align=center;verticalAlign=middle;resizable=0;points=[];autosize=1;strokeColor=none;fillColor=none;" parent="1" vertex="1">
          <mxGeometry x="540" y="660" width="60" height="30" as="geometry" />
        </mxCell>
        <mxCell id="zrCdLSHMlBMFCDXcZO0a-56" value="" style="ellipse;whiteSpace=wrap;html=1;aspect=fixed;" parent="1" vertex="1">
          <mxGeometry x="530" y="690" width="20" height="20" as="geometry" />
        </mxCell>
        <mxCell id="zrCdLSHMlBMFCDXcZO0a-57" value="PrezzoOf" style="text;html=1;align=center;verticalAlign=middle;resizable=0;points=[];autosize=1;strokeColor=none;fillColor=none;" parent="1" vertex="1">
          <mxGeometry x="545" y="685" width="70" height="30" as="geometry" />
        </mxCell>
        <mxCell id="zrCdLSHMlBMFCDXcZO0a-58" value="" style="ellipse;whiteSpace=wrap;html=1;aspect=fixed;" parent="1" vertex="1">
          <mxGeometry x="530" y="715" width="20" height="20" as="geometry" />
        </mxCell>
        <mxCell id="zrCdLSHMlBMFCDXcZO0a-59" value="DataInSco" style="text;html=1;align=center;verticalAlign=middle;resizable=0;points=[];autosize=1;strokeColor=none;fillColor=none;" parent="1" vertex="1">
          <mxGeometry x="540" y="710" width="80" height="30" as="geometry" />
        </mxCell>
        <mxCell id="zrCdLSHMlBMFCDXcZO0a-61" value="" style="ellipse;whiteSpace=wrap;html=1;aspect=fixed;" parent="1" vertex="1">
          <mxGeometry x="530" y="740" width="20" height="20" as="geometry" />
        </mxCell>
        <mxCell id="zrCdLSHMlBMFCDXcZO0a-66" value="DataFinSco" style="text;html=1;align=center;verticalAlign=middle;resizable=0;points=[];autosize=1;strokeColor=none;fillColor=none;" parent="1" vertex="1">
          <mxGeometry x="537" y="735" width="90" height="30" as="geometry" />
        </mxCell>
        <mxCell id="zrCdLSHMlBMFCDXcZO0a-69" value="" style="endArrow=none;html=1;rounded=0;" parent="1" edge="1">
          <mxGeometry width="50" height="50" relative="1" as="geometry">
            <mxPoint x="509" y="765" as="sourcePoint" />
            <mxPoint x="510" y="690" as="targetPoint" />
          </mxGeometry>
        </mxCell>
        <mxCell id="zrCdLSHMlBMFCDXcZO0a-70" value="" style="ellipse;whiteSpace=wrap;html=1;aspect=fixed;" parent="1" vertex="1">
          <mxGeometry x="93.5" y="115" width="20" height="20" as="geometry" />
        </mxCell>
        <mxCell id="zrCdLSHMlBMFCDXcZO0a-71" value="DataOrd" style="text;html=1;align=center;verticalAlign=middle;resizable=0;points=[];autosize=1;strokeColor=none;fillColor=none;" parent="1" vertex="1">
          <mxGeometry x="106.5" y="110" width="70" height="30" as="geometry" />
        </mxCell>
        <mxCell id="zrCdLSHMlBMFCDXcZO0a-94" value="" style="ellipse;whiteSpace=wrap;html=1;aspect=fixed;" parent="1" vertex="1">
          <mxGeometry x="300" y="267" width="20" height="20" as="geometry" />
        </mxCell>
        <mxCell id="zrCdLSHMlBMFCDXcZO0a-95" value="Quantita" style="text;html=1;align=center;verticalAlign=middle;resizable=0;points=[];autosize=1;strokeColor=none;fillColor=none;" parent="1" vertex="1">
          <mxGeometry x="315" y="262" width="70" height="30" as="geometry" />
        </mxCell>
        <mxCell id="zrCdLSHMlBMFCDXcZO0a-96" value="" style="ellipse;whiteSpace=wrap;html=1;aspect=fixed;" parent="1" vertex="1">
          <mxGeometry x="510" y="95" width="20" height="20" as="geometry" />
        </mxCell>
        <mxCell id="zrCdLSHMlBMFCDXcZO0a-97" value="Descrizione" style="text;html=1;align=center;verticalAlign=middle;resizable=0;points=[];autosize=1;strokeColor=none;fillColor=none;" parent="1" vertex="1">
          <mxGeometry x="520" y="90" width="90" height="30" as="geometry" />
        </mxCell>
        <mxCell id="zrCdLSHMlBMFCDXcZO0a-98" value="" style="ellipse;whiteSpace=wrap;html=1;aspect=fixed;" parent="1" vertex="1">
          <mxGeometry x="510" y="70" width="20" height="20" as="geometry" />
        </mxCell>
        <mxCell id="zrCdLSHMlBMFCDXcZO0a-99" value="Image" style="text;html=1;align=center;verticalAlign=middle;resizable=0;points=[];autosize=1;strokeColor=none;fillColor=none;" parent="1" vertex="1">
          <mxGeometry x="520" y="65" width="60" height="30" as="geometry" />
        </mxCell>
        <mxCell id="zrCdLSHMlBMFCDXcZO0a-103" value="" style="ellipse;whiteSpace=wrap;html=1;aspect=fixed;" parent="1" vertex="1">
          <mxGeometry x="530" y="560" width="20" height="20" as="geometry" />
        </mxCell>
        <mxCell id="zrCdLSHMlBMFCDXcZO0a-108" value="isDisp" style="text;html=1;align=center;verticalAlign=middle;resizable=0;points=[];autosize=1;strokeColor=none;fillColor=none;" parent="1" vertex="1">
          <mxGeometry x="539" y="555" width="60" height="30" as="geometry" />
        </mxCell>
        <mxCell id="zrCdLSHMlBMFCDXcZO0a-109" value="" style="ellipse;whiteSpace=wrap;html=1;aspect=fixed;fillColor=#FFFFFF;" parent="1" vertex="1">
          <mxGeometry x="130" y="605" width="20" height="20" as="geometry" />
        </mxCell>
        <mxCell id="zrCdLSHMlBMFCDXcZO0a-110" value="Password" style="text;html=1;align=center;verticalAlign=middle;resizable=0;points=[];autosize=1;strokeColor=none;fillColor=none;" parent="1" vertex="1">
          <mxGeometry x="140" y="600" width="80" height="30" as="geometry" />
        </mxCell>
        <mxCell id="zrCdLSHMlBMFCDXcZO0a-114" value="" style="endArrow=none;html=1;rounded=0;" parent="1" edge="1">
          <mxGeometry width="50" height="50" relative="1" as="geometry">
            <mxPoint x="98" y="640" as="sourcePoint" />
            <mxPoint x="98" y="580" as="targetPoint" />
          </mxGeometry>
        </mxCell>
        <mxCell id="zrCdLSHMlBMFCDXcZO0a-115" value="" style="ellipse;whiteSpace=wrap;html=1;aspect=fixed;fillColor=#000000;" parent="1" vertex="1">
          <mxGeometry x="93.5" y="570" width="10" height="10" as="geometry" />
        </mxCell>
      </root>
    </mxGraphModel>
  </diagram>
</mxfile>
